<svg t="1770373019086" class="icon" viewBox="0 0 1024 1024" version="1.1" xmlns="http://www.w3.org/2000/svg" p-id="4445"><path d="M910.096853 360.579647v-61.707521c0-52.999376-42.030493-112.28336-98.281728-112.28336H528.430288l-11.681508-22.048347c-11.685603-22.352441-34.588894-36.229158-59.807189-36.229158H154.570848c-50.436591 0-91.447294 42.168717-91.447294 94.010079v575.540275c0 51.814741 41.010703 93.969123 91.447294 93.969124h711.539892c50.436591 0 91.447294-42.154383 91.447294-93.969124V444.614011c-0.001024-30.633625-20.252452-63.054954-47.461181-84.034364z m-98.281728-117.546131c19.540851 0 41.838002 29.75206 41.838002 55.83861v39.040748c-0.956309-0.038908-1.913642-0.097269-2.865855-0.097269H608.55341l-50.21748-94.782089h253.479195z m89.297134 554.828099c0 20.684531-15.709473 37.524373-35.002543 37.524374h-711.538868c-19.292047 0-35.002544-16.839842-35.002544-37.524374V222.32134c0-20.712176 15.709473-37.565329 35.002544-37.565329h302.370743c4.134449 0 7.882893 2.274049 9.867182 6.07676l99.825748 188.420497a28.252068 28.252068 0 0 0 24.94287 15.007087h259.209881c20.229926 0 50.326011 30.12373 50.326011 50.353656v353.247604z" fill="#3E3A39" p-id="4446"></path></svg>